<?xml version="1.0" encoding="UTF-8" standalone="no"?><!DOCTYPE svg PUBLIC "-//W3C//DTD SVG 1.1//EN" "http://www.w3.org/Graphics/SVG/1.1/DTD/svg11.dtd"><svg width="100%" height="100%" viewBox="0 0 40 50" version="1.1" xmlns="http://www.w3.org/2000/svg" xmlns:xlink="http://www.w3.org/1999/xlink" xml:space="preserve" xmlns:serif="http://www.serif.com/" style="fill-rule:evenodd;clip-rule:evenodd;stroke-linejoin:round;stroke-miterlimit:2;"><g><path d="M11.251,11.396c3.718,5.894 7.249,12.751 7.249,17.604l3,0c0,-4.853 3.531,-11.71 7.249,-17.604c0.598,-0.027 1.198,-0.057 1.8,-0.088c1.293,-0.068 2.505,-0.14 3.602,-0.213c0.384,-0.025 0.726,-0.049 1.022,-0.07c0.178,-0.012 0.301,-0.022 0.365,-0.026c0.275,-0.021 0.482,-0.262 0.461,-0.537c-0.021,-0.275 -0.262,-0.482 -0.537,-0.461c-0.063,0.005 -0.184,0.014 -0.36,0.027c-0.295,0.021 -0.635,0.044 -1.017,0.069c-1.092,0.073 -2.3,0.145 -3.588,0.212c-2.987,0.156 -5.943,0.262 -8.704,0.296c-0.612,0.008 -1.211,0.012 -1.793,0.012c-0.582,-0 -1.181,-0.004 -1.793,-0.012c-2.761,-0.034 -5.717,-0.14 -8.704,-0.296c-1.288,-0.067 -2.496,-0.139 -3.588,-0.212c-0.382,-0.025 -0.722,-0.048 -1.017,-0.069c-0.176,-0.013 -0.297,-0.022 -0.36,-0.027c-0.275,-0.021 -0.516,0.186 -0.537,0.461c-0.021,0.275 0.186,0.516 0.461,0.537c0.064,0.004 0.187,0.014 0.365,0.026c0.296,0.021 0.638,0.045 1.022,0.07c1.097,0.073 2.309,0.145 3.602,0.213c0.602,0.031 1.202,0.061 1.8,0.088Z"/></g></svg>